<?xml version="1.0" encoding="UTF-8" standalone="no"?>
<!-- Created with Inkscape (http://www.inkscape.org/) -->

<svg
   xmlns:dc="http://purl.org/dc/elements/1.1/"
   xmlns:cc="http://creativecommons.org/ns#"
   xmlns:rdf="http://www.w3.org/1999/02/22-rdf-syntax-ns#"
   xmlns:svg="http://www.w3.org/2000/svg"
   xmlns="http://www.w3.org/2000/svg"
   xmlns:sodipodi="http://sodipodi.sourceforge.net/DTD/sodipodi-0.dtd"
   xmlns:inkscape="http://www.inkscape.org/namespaces/inkscape"
   id="svg2985"
   version="1.1"
   inkscape:version="0.48.3.1 r9886"
   width="1052.3622"
   height="744.09448"
   xml:space="preserve"
   sodipodi:docname="All_Pivot_Parts.PDF"><metadata
     id="metadata2991"><rdf:RDF><cc:Work
         rdf:about=""><dc:format>image/svg+xml</dc:format><dc:type
           rdf:resource="http://purl.org/dc/dcmitype/StillImage" /><dc:title></dc:title></cc:Work></rdf:RDF></metadata><defs
     id="defs2989" /><sodipodi:namedview
     pagecolor="#ffffff"
     bordercolor="#666666"
     borderopacity="1"
     objecttolerance="10"
     gridtolerance="10"
     guidetolerance="10"
     inkscape:pageopacity="0"
     inkscape:pageshadow="2"
     inkscape:window-width="1680"
     inkscape:window-height="972"
     id="namedview2987"
     showgrid="false"
     inkscape:zoom="0.39141414"
     inkscape:cx="991.08382"
     inkscape:cy="285.93464"
     inkscape:window-x="-4"
     inkscape:window-y="-4"
     inkscape:window-maximized="1"
     inkscape:current-layer="g2993" /><g
     id="g2993"
     inkscape:groupmode="layer"
     inkscape:label="All_Pivot_Parts"
     transform="matrix(1.25,0,0,-1.25,0,744.09449)"><g
       id="g3171"
       transform="translate(37.678712,442.61483)"><path
         d="M 0,0 0.1,-1.5 0.3,-3 0.7,-4.5 1.3,-5.9 2.1,-7.2 3,-8.5 l 1,-1.1 1.1,-1 1.3,-0.9 1.3,-0.7 1.4,-0.6 1.5,-0.4 1.5,-0.3 1.5,0 1.5,0.1 1.5,0.3 1.5,0.4 1.4,0.6 m -6,125.2 -1.5,0 -1.5,-0.3 L 9,112.4 7.6,111.8 6.3,111.1 5,110.2 3.9,109.2 2.9,108.1 2,106.8 1.3,105.5 0.7,104.1 0.3,102.6 0.1,101.1 0,99.6 M 201.8,79 l 1.5,0.9 1.5,1 1.3,1.2 1.3,1.3 1.1,1.4 0.9,1.5 0.8,1.6 0.6,1.7 0.5,1.7 0.3,1.8 0.1,1.7 0,1.8 -0.3,1.8 -0.4,1.7 -0.6,1.7 -0.7,1.6 -0.9,1.6 -1.1,1.4 -1.2,1.4 -1.3,1.2 -1.4,1 -1.5,1 -1.6,0.7 -1.7,0.6 -1.7,0.5 -1.8,0.2 -1.8,0.1 M 27.1,18.6 27,19.5 l -0.3,0.9 -0.4,0.8 -0.6,0.7 -0.7,0.6 -0.8,0.4 -0.8,0.3 -0.9,0.1 -0.9,-0.1 -0.9,-0.3 -0.8,-0.4 -0.7,-0.6 -0.6,-0.7 -0.4,-0.8 -0.3,-0.9 -0.1,-0.9 0.1,-0.9 0.3,-0.8 0.4,-0.8 0.6,-0.7 0.7,-0.6 0.8,-0.4 0.9,-0.3 0.9,-0.1 0.9,0.1 0.8,0.3 0.8,0.4 0.7,0.6 0.6,0.7 0.4,0.8 0.3,0.8 0.1,0.9 m 157.5,72 -0.1,0.9 -0.3,0.9 -0.4,0.8 -0.6,0.7 -0.7,0.6 -0.8,0.4 -0.8,0.3 -0.9,0.1 -0.9,-0.1 -0.9,-0.3 -0.8,-0.4 -0.7,-0.6 -0.6,-0.7 -0.4,-0.8 -0.3,-0.9 -0.1,-0.9 0.1,-0.9 0.3,-0.8 0.4,-0.8 0.6,-0.7 0.7,-0.6 0.8,-0.4 0.9,-0.3 0.9,-0.1 0.9,0.1 0.8,0.3 0.8,0.4 0.7,0.6 0.6,0.7 0.4,0.8 0.3,0.8 0.1,0.9 m -157.5,0 -0.1,0.9 -0.3,0.9 -0.4,0.8 -0.6,0.7 -0.7,0.6 -0.8,0.4 -0.8,0.3 -0.9,0.1 -0.9,-0.1 -0.9,-0.3 -0.8,-0.4 -0.7,-0.6 -0.6,-0.7 -0.4,-0.8 -0.3,-0.9 -0.1,-0.9 0.1,-0.9 0.3,-0.8 0.4,-0.8 0.6,-0.7 0.7,-0.6 0.8,-0.4 0.9,-0.3 0.9,-0.1 0.9,0.1 0.8,0.3 0.8,0.4 0.7,0.6 0.6,0.7 0.4,0.8 0.3,0.8 0.1,0.9 M 19.5,-12.1 201.8,79 M 0,99.6 0,0 m 193.7,113.1 -180.2,0"
         style="fill:none;stroke:#000000;stroke-width:0.70899999;stroke-linecap:round;stroke-linejoin:round;stroke-miterlimit:10;stroke-opacity:1;stroke-dasharray:none"
         id="path3173"
         inkscape:connector-curvature="0" /></g><g
       id="g3175"
       transform="translate(285.19097,562.61483)"><path
         d="M 0,0 -1.4,-0.2 -2.8,-0.5 -4.1,-1 -5.3,-1.8 -6.4,-2.7 -7.3,-3.8 -8,-5 -8.5,-6.3 -8.9,-7.6 -9,-9 M 207,0 0,0 m 216,-9 -0.1,1.4 -0.3,1.3 -0.6,1.3 -0.7,1.2 -0.9,1.1 -1.1,0.9 -1.2,0.8 -1.3,0.5 -1.4,0.3 L 207,0 m 9,-31.1 0,22.1 m -4.1,-29.7 0.9,0.7 0.8,0.7 0.7,0.9 0.6,1 0.5,1 0.3,1.1 0.2,1.1 0.1,1.1 M 4.9,-171.2 211.9,-38.7 M -9,-163.6 l 0.1,-1.4 0.3,-1.3 0.5,-1.3 0.7,-1.2 0.9,-1 1,-0.9 1.2,-0.8 1.2,-0.6 1.4,-0.3 1.3,-0.2 1.4,0.1 1.4,0.2 1.3,0.5 1.2,0.6 M -9,-9 -9,-163.6 m 15.4,19.6 -0.1,0.9 -0.3,0.9 -0.4,0.9 -0.7,0.7 -0.8,0.6 -0.9,0.4 -0.9,0.2 -1,0 -0.9,-0.2 -0.9,-0.4 -0.8,-0.6 -0.6,-0.7 -0.5,-0.9 -0.3,-0.9 -0.1,-0.9 0.1,-1 0.3,-0.9 0.5,-0.9 0.6,-0.7 0.8,-0.5 0.9,-0.4 0.9,-0.2 1,0 0.9,0.2 0.9,0.4 0.8,0.5 0.7,0.7 0.4,0.9 0.3,0.9 0.1,1 m 0,124.9 -0.1,1 -0.3,0.9 -0.4,0.8 -0.7,0.8 -0.8,0.5 -0.9,0.4 -0.9,0.2 -1,0 -0.9,-0.2 -0.9,-0.4 -0.8,-0.5 -0.6,-0.8 -0.5,-0.8 -0.3,-0.9 -0.1,-1 0.1,-0.9 0.3,-1 0.5,-0.8 0.6,-0.7 0.8,-0.6 0.9,-0.4 0.9,-0.2 1,0 0.9,0.2 0.9,0.4 0.8,0.6 0.7,0.7 0.4,0.8 0.3,1 0.1,0.9 m 45,0 -0.1,1 -0.3,0.9 -0.4,0.8 -0.7,0.8 -0.8,0.5 -0.9,0.4 -0.9,0.2 -1,0 -0.9,-0.2 -0.9,-0.4 -0.8,-0.5 -0.6,-0.8 -0.5,-0.8 -0.3,-0.9 -0.1,-1 0.1,-0.9 0.3,-1 0.5,-0.8 0.6,-0.7 0.8,-0.6 0.9,-0.4 0.9,-0.2 1,0 0.9,0.2 0.9,0.4 0.8,0.6 0.7,0.7 0.4,0.8 0.3,1 0.1,0.9 m 151.2,0 -0.1,1 -0.3,0.9 -0.4,0.8 -0.7,0.8 -0.8,0.5 -0.9,0.4 -0.9,0.2 -1,0 -0.9,-0.2 -0.9,-0.4 -0.8,-0.5 -0.6,-0.8 -0.5,-0.8 -0.3,-0.9 -0.1,-1 0.1,-0.9 0.3,-1 0.5,-0.8 0.6,-0.7 0.8,-0.6 0.9,-0.4 0.9,-0.2 1,0 0.9,0.2 0.9,0.4 0.8,0.6 0.7,0.7 0.4,0.8 0.3,1 0.1,0.9"
         style="fill:none;stroke:#000000;stroke-width:0.70899999;stroke-linecap:round;stroke-linejoin:round;stroke-miterlimit:10;stroke-opacity:1;stroke-dasharray:none"
         id="path3177"
         inkscape:connector-curvature="0" /></g><g
       id="g3179"
       transform="translate(39.778712,379.71483)"><path
         d="M 0,0 171,0 M 0,36 0,0 M 171,36 0,36 M 171,0 171,36 M 18.1,18 l 0,0.7 -0.2,0.8 -0.3,0.7 -0.4,0.6 -0.5,0.6 -0.7,0.4 -0.6,0.4 -0.7,0.3 -0.8,0.1 -0.8,0 L 12.4,22.5 11.7,22.2 11,21.8 10.4,21.4 9.9,20.8 9.5,20.2 9.1,19.5 9,18.7 8.9,18 9,17.2 l 0.1,-0.7 0.4,-0.7 0.4,-0.7 0.5,-0.5 0.6,-0.5 0.7,-0.4 0.7,-0.2 0.7,-0.1 0.8,0 0.8,0.1 0.7,0.2 0.6,0.4 0.7,0.5 0.5,0.5 0.4,0.7 0.3,0.7 0.2,0.7 0,0.8 m 139.5,0 0,0.7 -0.2,0.8 -0.3,0.7 -0.4,0.6 -0.5,0.6 -0.7,0.4 -0.6,0.4 -0.7,0.3 -0.8,0.1 -0.8,0 -0.7,-0.1 -0.7,-0.3 -0.7,-0.4 -0.6,-0.4 -0.5,-0.6 -0.4,-0.6 -0.4,-0.7 -0.1,-0.8 -0.1,-0.7 0.1,-0.8 0.1,-0.7 0.4,-0.7 0.4,-0.7 0.5,-0.5 0.6,-0.5 0.7,-0.4 0.7,-0.2 0.7,-0.1 0.8,0 0.8,0.1 0.7,0.2 0.6,0.4 0.7,0.5 0.5,0.5 0.4,0.7 0.3,0.7 0.2,0.7 0,0.8"
         style="fill:none;stroke:#000000;stroke-width:0.70899999;stroke-linecap:round;stroke-linejoin:round;stroke-miterlimit:10;stroke-opacity:1;stroke-dasharray:none"
         id="path3181"
         inkscape:connector-curvature="0" /></g><g
       id="g3183"
       transform="translate(359.77871,381.61483)"><path
         d="M 0,0 171,0 M 0,36 0,0 M 171,36 0,36 M 171,0 171,36 M 18.2,18 l -0.1,0.7 -0.2,0.8 -0.3,0.7 -0.4,0.6 -0.5,0.6 -0.6,0.4 -0.7,0.4 -0.7,0.2 -0.8,0.2 -0.7,0 L 12.4,22.4 11.7,22.2 11,21.8 10.4,21.4 9.9,20.8 9.5,20.2 9.2,19.5 9,18.7 8.9,18 9,17.2 l 0.2,-0.7 0.3,-0.7 0.4,-0.7 0.5,-0.5 0.6,-0.5 0.7,-0.4 0.7,-0.2 0.8,-0.1 0.7,0 0.8,0.1 0.7,0.2 0.7,0.4 0.6,0.5 0.5,0.5 0.4,0.7 0.3,0.7 0.2,0.7 0.1,0.8 m 139.5,0 -0.1,0.7 -0.2,0.8 -0.3,0.7 -0.4,0.6 -0.5,0.6 -0.6,0.4 -0.7,0.4 -0.7,0.2 -0.8,0.2 -0.7,0 -0.8,-0.2 -0.7,-0.2 -0.7,-0.4 -0.6,-0.4 -0.5,-0.6 -0.4,-0.6 -0.3,-0.7 -0.2,-0.8 -0.1,-0.7 0.1,-0.8 0.2,-0.7 0.3,-0.7 0.4,-0.7 0.5,-0.5 0.6,-0.5 0.7,-0.4 0.7,-0.2 0.8,-0.1 0.7,0 0.8,0.1 0.7,0.2 0.7,0.4 0.6,0.5 0.5,0.5 0.4,0.7 0.3,0.7 0.2,0.7 0.1,0.8"
         style="fill:none;stroke:#000000;stroke-width:0.70899999;stroke-linecap:round;stroke-linejoin:round;stroke-miterlimit:10;stroke-opacity:1;stroke-dasharray:none"
         id="path3185"
         inkscape:connector-curvature="0" /></g></g></svg>