<?xml version="1.0" encoding="UTF-8" standalone="no"?>
<!-- Created with Inkscape (http://www.inkscape.org/) -->

<svg
   xmlns:dc="http://purl.org/dc/elements/1.1/"
   xmlns:cc="http://creativecommons.org/ns#"
   xmlns:rdf="http://www.w3.org/1999/02/22-rdf-syntax-ns#"
   xmlns:svg="http://www.w3.org/2000/svg"
   xmlns="http://www.w3.org/2000/svg"
   xmlns:sodipodi="http://sodipodi.sourceforge.net/DTD/sodipodi-0.dtd"
   xmlns:inkscape="http://www.inkscape.org/namespaces/inkscape"
   id="svg2985"
   version="1.1"
   inkscape:version="0.48.3.1 r9886"
   width="1052.3622"
   height="744.09448"
   xml:space="preserve"
   sodipodi:docname="Connector_Holder_Bars.PDF"><metadata
     id="metadata2991"><rdf:RDF><cc:Work
         rdf:about=""><dc:format>image/svg+xml</dc:format><dc:type
           rdf:resource="http://purl.org/dc/dcmitype/StillImage" /><dc:title></dc:title></cc:Work></rdf:RDF></metadata><defs
     id="defs2989" /><sodipodi:namedview
     pagecolor="#ffffff"
     bordercolor="#666666"
     borderopacity="1"
     objecttolerance="10"
     gridtolerance="10"
     guidetolerance="10"
     inkscape:pageopacity="0"
     inkscape:pageshadow="2"
     inkscape:window-width="1920"
     inkscape:window-height="1002"
     id="namedview2987"
     showgrid="false"
     inkscape:zoom="4.5997653"
     inkscape:cx="316.82138"
     inkscape:cy="702.05906"
     inkscape:window-x="-4"
     inkscape:window-y="-4"
     inkscape:window-maximized="1"
     inkscape:current-layer="g2993" /><g
     id="g2993"
     inkscape:groupmode="layer"
     inkscape:label="Connector_Holder_Bars"
     transform="matrix(1.25,0,0,-1.25,0,744.09449)"><path
       style="fill:none;stroke:#000000;stroke-width:0.70899999;stroke-linecap:round;stroke-linejoin:round;stroke-miterlimit:10;stroke-opacity:1;stroke-dasharray:none"
       d="m 16.689264,543.36364 170.999996,0"
       id="path3229" /><path
       style="fill:none;stroke:#000000;stroke-width:0.70899999;stroke-linecap:round;stroke-linejoin:round;stroke-miterlimit:10;stroke-opacity:1;stroke-dasharray:none"
       d="m 16.689264,579.36364 0,-36"
       id="path3227" /><path
       style="fill:none;stroke:#000000;stroke-width:0.70899999;stroke-linecap:round;stroke-linejoin:round;stroke-miterlimit:10;stroke-opacity:1;stroke-dasharray:none"
       d="m 187.68926,579.36364 -170.999996,0"
       id="path3225" /><path
       style="fill:none;stroke:#000000;stroke-width:0.70899999;stroke-linecap:round;stroke-linejoin:round;stroke-miterlimit:10;stroke-opacity:1;stroke-dasharray:none"
       d="m 187.68926,543.36364 0,36"
       id="path3223" /><path
       style="fill:none;stroke:#000000;stroke-width:0.70899999;stroke-linecap:round;stroke-linejoin:round;stroke-miterlimit:10;stroke-opacity:1;stroke-dasharray:none"
       d="m 34.889264,561.36364 -0.1,0.7 -0.2,0.8 -0.3,0.7 -0.4,0.6 -0.5,0.6 -0.6,0.4 -0.7,0.4 -0.7,0.2 -0.8,0.2 -0.7,0 -0.8,-0.2 -0.7,-0.2 -0.7,-0.4 -0.6,-0.4 -0.5,-0.6 -0.4,-0.6 -0.3,-0.7 -0.2,-0.8 -0.1,-0.7 0.1,-0.8 0.2,-0.7 0.3,-0.7 0.4,-0.7 0.5,-0.5 0.6,-0.5 0.7,-0.4 0.7,-0.2 0.8,-0.2 0.7,0 0.8,0.2 0.7,0.2 0.7,0.4 0.6,0.5 0.5,0.5 0.4,0.7 0.3,0.7 0.2,0.7 0.1,0.8"
       id="path3221" /><path
       style="fill:none;stroke:#000000;stroke-width:0.70899999;stroke-linecap:round;stroke-linejoin:round;stroke-miterlimit:10;stroke-opacity:1;stroke-dasharray:none"
       d="m 174.38926,561.36364 -0.1,0.7 -0.2,0.8 -0.3,0.7 -0.4,0.6 -0.5,0.6 -0.6,0.4 -0.7,0.4 -0.7,0.2 -0.8,0.2 -0.7,0 -0.8,-0.2 -0.7,-0.2 -0.7,-0.4 -0.6,-0.4 -0.5,-0.6 -0.4,-0.6 -0.3,-0.7 -0.2,-0.8 -0.1,-0.7 0.1,-0.8 0.2,-0.7 0.3,-0.7 0.4,-0.7 0.5,-0.5 0.6,-0.5 0.7,-0.4 0.7,-0.2 0.8,-0.2 0.7,0 0.8,0.2 0.7,0.2 0.7,0.4 0.6,0.5 0.5,0.5 0.4,0.7 0.3,0.7 0.2,0.7 0.1,0.8"
       id="path3177" /></g></svg>