<?xml version="1.0" encoding="UTF-8" standalone="no"?>
<!-- Created with Inkscape (http://www.inkscape.org/) -->

<svg
   xmlns:dc="http://purl.org/dc/elements/1.1/"
   xmlns:cc="http://creativecommons.org/ns#"
   xmlns:rdf="http://www.w3.org/1999/02/22-rdf-syntax-ns#"
   xmlns:svg="http://www.w3.org/2000/svg"
   xmlns="http://www.w3.org/2000/svg"
   xmlns:sodipodi="http://sodipodi.sourceforge.net/DTD/sodipodi-0.dtd"
   xmlns:inkscape="http://www.inkscape.org/namespaces/inkscape"
   id="svg2985"
   version="1.1"
   inkscape:version="0.48.3.1 r9886"
   width="1052.3622"
   height="744.09448"
   xml:space="preserve"
   sodipodi:docname="Pivot.PDF"><metadata
     id="metadata2991"><rdf:RDF><cc:Work
         rdf:about=""><dc:format>image/svg+xml</dc:format><dc:type
           rdf:resource="http://purl.org/dc/dcmitype/StillImage" /><dc:title></dc:title></cc:Work></rdf:RDF></metadata><defs
     id="defs2989" /><sodipodi:namedview
     pagecolor="#ffffff"
     bordercolor="#666666"
     borderopacity="1"
     objecttolerance="10"
     gridtolerance="10"
     guidetolerance="10"
     inkscape:pageopacity="0"
     inkscape:pageshadow="2"
     inkscape:window-width="1920"
     inkscape:window-height="1002"
     id="namedview2987"
     showgrid="false"
     inkscape:zoom="9.1995306"
     inkscape:cx="245.47026"
     inkscape:cy="688.0049"
     inkscape:window-x="-4"
     inkscape:window-y="-4"
     inkscape:window-maximized="1"
     inkscape:current-layer="g2993" /><g
     id="g2993"
     inkscape:groupmode="layer"
     inkscape:label="Pivot"
     transform="matrix(1.25,0,0,-1.25,0,744.09449)"><path
       style="fill:none;stroke:#000000;stroke-width:0.70899999;stroke-linecap:round;stroke-linejoin:round;stroke-miterlimit:10;stroke-opacity:1;stroke-dasharray:none"
       d="m 16.831682,470.12236 0.1,-1.5 0.2,-1.5 0.5,-1.5 0.6,-1.4 0.7,-1.3 0.9,-1.3 1,-1.1 1.2,-1 1.2,-0.9 1.3,-0.7 1.5,-0.6 1.4,-0.4 1.5,-0.2 1.6,-0.1 1.5,0.1 1.5,0.3 1.4,0.4 1.4,0.6"
       id="path3251" /><path
       style="fill:none;stroke:#000000;stroke-width:0.70899999;stroke-linecap:round;stroke-linejoin:round;stroke-miterlimit:10;stroke-opacity:1;stroke-dasharray:none"
       d="m 30.331682,583.32236 -1.5,-0.1 -1.5,-0.3 -1.5,-0.4 -1.4,-0.6 -1.3,-0.7 -1.2,-0.9 -1.1,-1 -1.1,-1.1 -0.8,-1.3 -0.8,-1.3 -0.5,-1.4 -0.5,-1.4 -0.2,-1.5 -0.1,-1.5"
       id="path3249" /><path
       style="fill:none;stroke:#000000;stroke-width:0.70899999;stroke-linecap:round;stroke-linejoin:round;stroke-miterlimit:10;stroke-opacity:1;stroke-dasharray:none"
       d="m 218.63168,549.22236 1.6,0.8 1.4,1.1 1.4,1.1 1.2,1.3 1.1,1.4 0.9,1.5 0.8,1.6 0.7,1.7 0.4,1.7 0.3,1.8 0.2,1.8 -0.1,1.8 -0.2,1.7 -0.5,1.8 -0.5,1.6 -0.8,1.7 -0.9,1.5 -1,1.5 -1.2,1.3 -1.3,1.2 -1.5,1.1 -1.5,0.9 -1.6,0.8 -1.7,0.6 -1.7,0.4 -1.8,0.3 -1.7,0.1"
       id="path3247" /><path
       style="fill:none;stroke:#000000;stroke-width:0.70899999;stroke-linecap:round;stroke-linejoin:round;stroke-miterlimit:10;stroke-opacity:1;stroke-dasharray:none"
       d="m 43.931682,488.82236 -0.1,0.9 -0.2,0.8 -0.5,0.8 -0.5,0.7 -0.7,0.6 -0.8,0.4 -0.9,0.3 -0.9,0.1 -0.9,-0.1 -0.9,-0.3 -0.8,-0.4 -0.7,-0.6 -0.5,-0.7 -0.5,-0.8 -0.2,-0.8 -0.1,-0.9 0.1,-0.9 0.2,-0.9 0.5,-0.8 0.5,-0.7 0.7,-0.6 0.8,-0.4 0.9,-0.3 0.9,-0.1 0.9,0.1 0.9,0.3 0.8,0.4 0.7,0.6 0.5,0.7 0.5,0.8 0.2,0.9 0.1,0.9"
       id="path3245" /><path
       style="fill:none;stroke:#000000;stroke-width:0.70899999;stroke-linecap:round;stroke-linejoin:round;stroke-miterlimit:10;stroke-opacity:1;stroke-dasharray:none"
       d="m 201.43168,560.82236 -0.1,0.9 -0.2,0.8 -0.5,0.8 -0.5,0.7 -0.7,0.6 -0.8,0.4 -0.9,0.3 -0.9,0.1 -0.9,-0.1 -0.9,-0.3 -0.8,-0.4 -0.7,-0.6 -0.5,-0.7 -0.5,-0.8 -0.2,-0.8 -0.1,-0.9 0.1,-0.9 0.2,-0.9 0.5,-0.8 0.5,-0.7 0.7,-0.6 0.8,-0.4 0.9,-0.3 0.9,-0.1 0.9,0.1 0.9,0.3 0.8,0.4 0.7,0.6 0.5,0.7 0.5,0.8 0.2,0.9 0.1,0.9"
       id="path3243" /><path
       style="fill:none;stroke:#000000;stroke-width:0.70899999;stroke-linecap:round;stroke-linejoin:round;stroke-miterlimit:10;stroke-opacity:1;stroke-dasharray:none"
       d="m 43.931682,560.82236 -0.1,0.9 -0.2,0.8 -0.5,0.8 -0.5,0.7 -0.7,0.6 -0.8,0.4 -0.9,0.3 -0.9,0.1 -0.9,-0.1 -0.9,-0.3 -0.8,-0.4 -0.7,-0.6 -0.5,-0.7 -0.5,-0.8 -0.2,-0.8 -0.1,-0.9 0.1,-0.9 0.2,-0.9 0.5,-0.8 0.5,-0.7 0.7,-0.6 0.8,-0.4 0.9,-0.3 0.9,-0.1 0.9,0.1 0.9,0.3 0.8,0.4 0.7,0.6 0.5,0.7 0.5,0.8 0.2,0.9 0.1,0.9"
       id="path3241" /><path
       style="fill:none;stroke:#000000;stroke-width:0.70899999;stroke-linecap:round;stroke-linejoin:round;stroke-miterlimit:10;stroke-opacity:1;stroke-dasharray:none"
       d="m 36.331682,458.02236 182.299998,91.2"
       id="path3239" /><path
       style="fill:none;stroke:#000000;stroke-width:0.70899999;stroke-linecap:round;stroke-linejoin:round;stroke-miterlimit:10;stroke-opacity:1;stroke-dasharray:none"
       d="m 16.831682,569.82236 0,-99.7"
       id="path3237" /><path
       style="fill:none;stroke:#000000;stroke-width:0.70899999;stroke-linecap:round;stroke-linejoin:round;stroke-miterlimit:10;stroke-opacity:1;stroke-dasharray:none"
       d="m 210.63168,583.32236 -180.299998,0"
       id="path3177" /></g></svg>