<?xml version="1.0" encoding="UTF-8" standalone="no"?>
<!-- Created with Inkscape (http://www.inkscape.org/) -->

<svg
   xmlns:dc="http://purl.org/dc/elements/1.1/"
   xmlns:cc="http://creativecommons.org/ns#"
   xmlns:rdf="http://www.w3.org/1999/02/22-rdf-syntax-ns#"
   xmlns:svg="http://www.w3.org/2000/svg"
   xmlns="http://www.w3.org/2000/svg"
   xmlns:sodipodi="http://sodipodi.sourceforge.net/DTD/sodipodi-0.dtd"
   xmlns:inkscape="http://www.inkscape.org/namespaces/inkscape"
   id="svg2985"
   version="1.1"
   inkscape:version="0.48.3.1 r9886"
   width="1052.3622"
   height="744.09448"
   xml:space="preserve"
   sodipodi:docname="Pivot_Bars.PDF"><metadata
     id="metadata2991"><rdf:RDF><cc:Work
         rdf:about=""><dc:format>image/svg+xml</dc:format><dc:type
           rdf:resource="http://purl.org/dc/dcmitype/StillImage" /><dc:title></dc:title></cc:Work></rdf:RDF></metadata><defs
     id="defs2989" /><sodipodi:namedview
     pagecolor="#ffffff"
     bordercolor="#666666"
     borderopacity="1"
     objecttolerance="10"
     gridtolerance="10"
     guidetolerance="10"
     inkscape:pageopacity="0"
     inkscape:pageshadow="2"
     inkscape:window-width="1920"
     inkscape:window-height="1002"
     id="namedview2987"
     showgrid="false"
     inkscape:zoom="13.469281"
     inkscape:cx="54.680106"
     inkscape:cy="538.41603"
     inkscape:window-x="-4"
     inkscape:window-y="-4"
     inkscape:window-maximized="1"
     inkscape:current-layer="g2993" /><g
     id="g2993"
     inkscape:groupmode="layer"
     inkscape:label="Pivot_Bars"
     transform="matrix(1.25,0,0,-1.25,0,744.09449)"><path
       style="fill:none;stroke:#000000;stroke-width:0.70899999;stroke-linecap:round;stroke-linejoin:round;stroke-miterlimit:10;stroke-opacity:1;stroke-dasharray:none"
       d="m 25.160873,572.3118 -1.4,-0.1 -1.4,-0.3 -1.3,-0.6 -1.2,-0.7 -1.1,-0.9 -0.9,-1.1 -0.8,-1.2 -0.5,-1.3 -0.3,-1.4 -0.1,-1.4"
       id="path3273" /><path
       style="fill:none;stroke:#000000;stroke-width:0.70899999;stroke-linecap:round;stroke-linejoin:round;stroke-miterlimit:10;stroke-opacity:1;stroke-dasharray:none"
       d="m 232.16087,572.3118 -206.999997,0"
       id="path3271" /><path
       style="fill:none;stroke:#000000;stroke-width:0.70899999;stroke-linecap:round;stroke-linejoin:round;stroke-miterlimit:10;stroke-opacity:1;stroke-dasharray:none"
       d="m 241.16087,563.3118 -0.1,1.4 -0.4,1.4 -0.5,1.3 -0.8,1.2 -0.9,1.1 -1,0.9 -1.2,0.7 -1.4,0.6 -1.3,0.3 -1.4,0.1"
       id="path3269" /><path
       style="fill:none;stroke:#000000;stroke-width:0.70899999;stroke-linecap:round;stroke-linejoin:round;stroke-miterlimit:10;stroke-opacity:1;stroke-dasharray:none"
       d="m 241.16087,506.0118 0,57.3"
       id="path3267" /><path
       style="fill:none;stroke:#000000;stroke-width:0.70899999;stroke-linecap:round;stroke-linejoin:round;stroke-miterlimit:10;stroke-opacity:1;stroke-dasharray:none"
       d="m 236.06087,497.9118 1.1,0.6 1,0.8 0.8,0.9 0.8,1 0.6,1.1 0.4,1.2 0.3,1.2 0.1,1.3"
       id="path3265" /><path
       style="fill:none;stroke:#000000;stroke-width:0.70899999;stroke-linecap:round;stroke-linejoin:round;stroke-miterlimit:10;stroke-opacity:1;stroke-dasharray:none"
       d="m 29.060873,398.5118 206.999997,99.4"
       id="path3263" /><path
       style="fill:none;stroke:#000000;stroke-width:0.70899999;stroke-linecap:round;stroke-linejoin:round;stroke-miterlimit:10;stroke-opacity:1;stroke-dasharray:none"
       d="m 16.160873,406.6118 0.1,-1.4 0.3,-1.3 0.5,-1.3 0.7,-1.2 0.9,-1.1 1.1,-0.9 1.2,-0.7 1.3,-0.6 1.3,-0.3 1.4,-0.2 1.4,0.1 1.4,0.3 1.3,0.5"
       id="path3261" /><path
       style="fill:none;stroke:#000000;stroke-width:0.70899999;stroke-linecap:round;stroke-linejoin:round;stroke-miterlimit:10;stroke-opacity:1;stroke-dasharray:none"
       d="m 16.160873,563.3118 0,-156.7"
       id="path3259" /><path
       style="fill:none;stroke:#000000;stroke-width:0.70899999;stroke-linecap:round;stroke-linejoin:round;stroke-miterlimit:10;stroke-opacity:1;stroke-dasharray:none"
       d="m 31.560873,428.3118 -0.1,1 -0.3,0.9 -0.5,0.8 -0.6,0.8 -0.8,0.5 -0.9,0.4 -1,0.2 -0.9,0 -1,-0.2 -0.8,-0.4 -0.8,-0.5 -0.7,-0.8 -0.5,-0.8 -0.3,-0.9 -0.1,-1 0.1,-0.9 0.3,-1 0.5,-0.8 0.7,-0.7 0.8,-0.6 0.8,-0.4 1,-0.2 0.9,0 1,0.2 0.9,0.4 0.8,0.6 0.6,0.7 0.5,0.8 0.3,1 0.1,0.9"
       id="path3257" /><path
       style="fill:none;stroke:#000000;stroke-width:0.70899999;stroke-linecap:round;stroke-linejoin:round;stroke-miterlimit:10;stroke-opacity:1;stroke-dasharray:none"
       d="m 31.560873,554.3118 -0.1,1 -0.3,0.9 -0.5,0.8 -0.6,0.8 -0.8,0.5 -0.9,0.4 -1,0.2 -0.9,0 -1,-0.2 -0.8,-0.4 -0.8,-0.5 -0.7,-0.8 -0.5,-0.8 -0.3,-0.9 -0.1,-1 0.1,-0.9 0.3,-1 0.5,-0.8 0.7,-0.7 0.8,-0.6 0.8,-0.4 1,-0.2 0.9,0 1,0.2 0.9,0.4 0.8,0.6 0.6,0.7 0.5,0.8 0.3,1 0.1,0.9"
       id="path3255" /><path
       style="fill:none;stroke:#000000;stroke-width:0.70899999;stroke-linecap:round;stroke-linejoin:round;stroke-miterlimit:10;stroke-opacity:1;stroke-dasharray:none"
       d="m 76.560873,554.3118 -0.1,1 -0.3,0.9 -0.5,0.8 -0.6,0.8 -0.8,0.5 -0.9,0.4 -1,0.2 -0.9,0 -1,-0.2 -0.8,-0.4 -0.8,-0.5 -0.7,-0.8 -0.5,-0.8 -0.3,-0.9 -0.1,-1 0.1,-0.9 0.3,-1 0.5,-0.8 0.7,-0.7 0.8,-0.6 0.8,-0.4 1,-0.2 0.9,0 1,0.2 0.9,0.4 0.8,0.6 0.6,0.7 0.5,0.8 0.3,1 0.1,0.9"
       id="path3253" /><path
       style="fill:none;stroke:#000000;stroke-width:0.70899999;stroke-linecap:round;stroke-linejoin:round;stroke-miterlimit:10;stroke-opacity:1;stroke-dasharray:none"
       d="m 227.76087,554.3118 -0.1,1 -0.3,0.9 -0.5,0.8 -0.6,0.8 -0.8,0.5 -0.9,0.4 -1,0.2 -0.9,0 -1,-0.2 -0.8,-0.4 -0.8,-0.5 -0.7,-0.8 -0.5,-0.8 -0.3,-0.9 -0.1,-1 0.1,-0.9 0.3,-1 0.5,-0.8 0.7,-0.7 0.8,-0.6 0.8,-0.4 1,-0.2 0.9,0 1,0.2 0.9,0.4 0.8,0.6 0.6,0.7 0.5,0.8 0.3,1 0.1,0.9"
       id="path3177" /></g></svg>